PathFileType	4	(X/Y/Z)	./resultDataOpenSim/trcMotMarkerGrf/sub10/qtm-15-05.trc
DataRate	CameraRate	NumFrames	NumMarkers	Units	OrigDataRate	OrigDataStartFrame	OrigNumFrames
250.000000	250.000000	5	24	m	250.000000	188	501
Frame#	Time	L.Toe.Tip			R.Toe.Tip			L.Ankle.Lat			R.Ankle.Lat			L.Ankle.Med			R.Ankle.Med			L.Heel			R.Heel			L.Knee.Lat			R.Knee.Lat			L.Knee.Med			R.Knee.Med			L.Thigh.Upper			R.Thigh.Upper			L.ASIS			R.ASIS			V.Sacral			L.Acromium			R.Acromium			C7			L.Elbow			R.Elbow			L.Wrist.Lat			R.Wrist.Lat
		X1	Y1	Z1	X2	Y2	Z2	X3	Y3	Z3	X4	Y4	Z4	X5	Y5	Z5	X6	Y6	Z6	X7	Y7	Z7	X8	Y8	Z8	X9	Y9	Z9	X10	Y10	Z10	X11	Y11	Z11	X12	Y12	Z12	X13	Y13	Z13	X14	Y14	Z14	X15	Y15	Z15	X16	Y16	Z16	X17	Y17	Z17	X18	Y18	Z18	X19	Y19	Z19	X20	Y20	Z20	X21	Y21	Z21	X22	Y22	Z22	X23	Y23	Z23	X24	Y24	Z24

188	0.748	-0.0044886436	-0.057869387	-0.096122052	-0.55654238	0.10300358	0.10210429	-0.13798305	-0.033338409	-0.12851872	-0.57305832	0.24965475	0.10468731	-0.13485376	-0.011522908	-0.044256611	-0.53283975	0.2163149	0.033850251	-0.20654249	-0.059043951	-0.08963293	-0.60382157	0.27534178	0.043898576	-0.072617521	0.34836246	-0.162229	-0.22128195	0.36227463	0.15436386	-0.068002455	0.32571744	-0.041584588	-0.16244834	0.3194132	0.037408091	-0.12984043	0.72962859	-0.22765831	-0.22006556	0.75899447	0.14892781	-0.10199437	0.84329569	-0.14290992	-0.13311754	0.85082795	0.083682499	-0.30971004	0.86570921	-0.06927144	-0.21584848	1.312913	-0.20802606	-0.23568289	1.3076405	0.11508089	-0.30280685	1.3284191	-0.054606665	-0.36318152	1.007837	-0.22410896	-0.22380404	0.94960036	0.17640066	-0.32663655	0.78254974	-0.3316131	0.018803849	0.91219641	0.24107485
189	0.752	-0.0042776587	-0.057919735	-0.09584238	-0.54243094	0.10866084	0.10540403	-0.13736715	-0.032937167	-0.12770736	-0.55876904	0.25499992	0.10372256	-0.13437653	-0.011612617	-0.043298815	-0.51860345	0.22006528	0.033316239	-0.20630151	-0.058580502	-0.089031387	-0.5892893	0.27991644	0.042434348	-0.065558128	0.34672599	-0.16120927	-0.20656386	0.35988213	0.15505706	-0.063717841	0.32520417	-0.040265493	-0.14758184	0.31836426	0.037698502	-0.12587827	0.72682731	-0.22857264	-0.2132981	0.75564416	0.14839163	-0.097146858	0.83943555	-0.14414844	-0.12770095	0.84789655	0.08226526	-0.30481521	0.86276536	-0.07028828	-0.20771684	1.3103151	-0.20892341	-0.2288775	1.3050258	0.11454974	-0.29581319	1.3256991	-0.055972	-0.35285451	1.0043981	-0.22673992	-0.21829431	0.94712712	0.1771003	-0.31644771	0.78015823	-0.33626078	0.023085392	0.9108167	0.24602603
190	0.756	-0.0039796038	-0.057967445	-0.095645968	-0.52776918	0.11426971	0.10840426	-0.13664162	-0.032422787	-0.12709975	-0.54356351	0.26045805	0.10312506	-0.13345812	-0.011351338	-0.042431756	-0.50393831	0.22371179	0.032776068	-0.20598054	-0.057948194	-0.088573119	-0.57449696	0.28429843	0.041187499	-0.05807556	0.34535437	-0.16028379	-0.19168711	0.35794674	0.15577331	-0.059163869	0.32500254	-0.039047006	-0.13261887	0.3178023	0.037780746	-0.12258135	0.72449673	-0.22949795	-0.20660584	0.7521291	0.14790983	-0.092461294	0.83565349	-0.14545402	-0.12251712	0.84492398	0.080853149	-0.30015581	0.85968624	-0.071271742	-0.19963421	1.3078395	-0.20974595	-0.2218769	1.302605	0.11409057	-0.28870969	1.3231641	-0.057244667	-0.34219033	1.0008007	-0.22969385	-0.21269988	0.94482341	0.17803156	-0.30599071	0.77797091	-0.34120024	0.027214693	0.90958547	0.25126346
191	0.76	-0.0036913585	-0.058019718	-0.095529092	-0.51254019	0.11979825	0.11109305	-0.13593401	-0.03194096	-0.12668711	-0.52777247	0.2657989	0.10278854	-0.13235213	-0.010887059	-0.041674906	-0.48891998	0.22727313	0.032279259	-0.20569893	-0.057273168	-0.088220737	-0.5595011	0.28846368	0.040209266	-0.050399919	0.34417299	-0.15943918	-0.1764584	0.35641994	0.15637391	-0.054228178	0.32498577	-0.03790856	-0.11761051	0.3176705	0.037672995	-0.11975005	0.72249034	-0.2304505	-0.19989135	0.74847711	0.14739094	-0.087896999	0.8320107	-0.1468179	-0.11760098	0.8419072	0.079484124	-0.29580617	0.85649347	-0.0720996	-0.19163284	1.3054855	-0.21051533	-0.21466186	1.3004016	0.11365813	-0.28144116	1.3208893	-0.058425123	-0.33219668	0.99747123	-0.23282773	-0.20705594	0.94272106	0.17920476	-0.29527781	0.77603839	-0.34642676	0.031172335	0.90854849	0.25677903
192	0.764	-0.003476795	-0.058074845	-0.095479014	-0.49675576	0.12514816	0.11347635	-0.13531493	-0.031519815	-0.12646279	-0.51185581	0.27072501	0.10253274	-0.13133902	-0.010342681	-0.041135458	-0.47365664	0.23075626	0.031909622	-0.20545958	-0.056611594	-0.08807216	-0.54436225	0.29235725	0.039509202	-0.042650791	0.34312473	-0.15865738	-0.1608442	0.35534685	0.15685644	-0.048742336	0.32506051	-0.036823207	-0.10251383	0.31795717	0.037397944	-0.11712571	0.72061581	-0.23139257	-0.19317794	0.744798	0.14675288	-0.083404602	0.82857333	-0.14823717	-0.11298072	0.83885293	0.078203335	-0.29175614	0.85319537	-0.072700641	-0.18371764	1.3032468	-0.21124125	-0.20721585	1.2984155	0.11320532	-0.27397063	1.3189619	-0.059513976	-0.32325873	0.99466917	-0.23606345	-0.20140031	0.94083011	0.18060018	-0.28431469	0.77441434	-0.35194649	0.034938145	0.90774896	0.26257143
